<?xml version="1.0" encoding="UTF-8"?>
<!DOCTYPE svg PUBLIC "-//W3C//DTD SVG 1.1//EN" "http://www.w3.org/Graphics/SVG/1.1/DTD/svg11.dtd">
<!-- Creator: CorelDRAW 2020 (64-Bit) -->
<svg xmlns="http://www.w3.org/2000/svg" xml:space="preserve" width="174.43mm" height="251.739mm" version="1.1" style="shape-rendering:geometricPrecision; text-rendering:geometricPrecision; image-rendering:optimizeQuality; fill-rule:evenodd; clip-rule:evenodd"
viewBox="0 0 17275.09 24931.5"
 xmlns:xlink="http://www.w3.org/1999/xlink"
 xmlns:xodm="http://www.corel.com/coreldraw/odm/2003">
 <defs>
  <style type="text/css">
   <![CDATA[
    .fil0 {fill:#FEFEFE}
   ]]>
  </style>
 </defs>
 <g id="Layer_x0020_1">
  <metadata id="CorelCorpID_0Corel-Layer"/>
  <g id="_1520558671024">
   <path class="fil0" d="M9007.26 19398.67l0 -6991.93 1839.98 0 0 7097.06c0,1222.32 -1839.98,1319.04 -1839.98,-105.14zm-1629.71 1051.42c-541.86,0 -946.28,-409.72 -946.28,-946.28l0 -7097.06 1840 0 0 6991.93c0,607 -382.24,1051.42 -893.72,1051.42zm-5940.51 -10409.04c643.49,-149.91 652.99,-162.13 1119.14,-510.55 879.53,-657.35 2037.48,-1608.91 2876.26,-2170.57l172.13 2035.83c85.77,639.46 38.13,5692.75 38.13,6585.81 0,1062.7 -159.15,3547.02 173.58,4242.38 232.56,485.99 642.2,875.33 1247.92,962.51 433.98,62.47 891.86,-5.65 1245.05,-277.81 236.27,-182.07 238.3,-154.27 277.45,-300.84l105.14 0c36.45,136.51 52.34,126.82 253.49,272.2 128.85,93.13 204.46,148.87 368.53,209.76 883.16,327.72 1782.48,-56.06 2148.86,-865.36 226.14,-499.47 120.52,-1415.55 120.52,-2087.46 0,-1263.01 -37.5,-7937.57 82.89,-8749.03l179.97 -2028c324.07,217 621.93,453.38 939.05,690.65l1911.92 1452.62c441.46,365.12 512.58,390.65 1144.42,537.85 0,1217.78 72.09,6963.14 -80.88,7909.92 -205.59,1272.47 -754.13,2740.92 -1640.78,3668.88 -903.92,946.01 -1046.19,1099.69 -2222.72,1772.67l-963.23 403.62c-2210.1,735.88 -4446.66,378.9 -6342.84,-874.95 -549.29,-363.24 -985.86,-789.93 -1407.46,-1273.67 -620.52,-711.99 -1167.07,-1667.49 -1420.18,-2575.21 -389.65,-1397.38 -326.36,-2106.53 -326.36,-3669.02 0,-1787.41 0,-3574.82 0,-5362.23zm-52.58 -788.55c-346.26,0 -630.85,-330.87 -630.85,-683.44 0,-468.14 769.35,-918.5 1276.68,-1299.3 518.12,-388.91 977.1,-745.49 1494.6,-1133.95l1464.66 -1111.32c266.5,-182.58 1498.23,-766.26 1862.28,-766.26l757.02 504.68c695.09,300.37 1365.69,300.37 2060.79,0 879.79,-380.12 368.86,-777.38 1718.74,-204.7 1127.02,478.16 2861.03,1962.21 3829.82,2688.98 260.77,195.62 483.12,360.83 751.45,562.84 1156.04,870.28 221.43,1442.46 -75.61,1442.46 -471.02,0 -1479.58,-925.49 -1847.57,-1201.58l-2183.59 -1654.8c-725.74,-526.26 -744.11,633.27 -800.58,1231.46 -168.35,1783.45 -215.07,2197.82 -215.07,3990.6l-4415.97 0c0,-1811.28 -61.26,-2182.52 -211.73,-3941.38 -188.08,-2198.9 -351.27,-1604.69 -2957.51,351.57l-1313.2 999.91c-166.75,127.32 -286.67,224.22 -564.36,224.22zm7412.52 -5046.82c-627.9,0 -952.72,-76.13 -1407.49,-537.67 -683.91,-694.1 -607.09,-1752.18 -0.79,-2395.15 138.11,-146.46 298.97,-248.77 495.19,-345.97 1730.75,-857.42 3309.85,1384.93 2031.64,2715.07 -235.68,245.24 -667.52,563.72 -1118.55,563.72zm-2418.27 -630.85c-181.21,86.93 -659.26,198.05 -999.73,367.11 -312.13,154.97 -629.04,304.37 -908.97,510.45l-3966.91 3025.01c-680.99,626.76 -677.06,1660.15 51.02,2237.43 206.67,163.87 151.59,243.43 147.81,588.18l-0.96 6887.74c-2.18,966.51 216.07,1855.54 480.71,2568.44 780.09,2101.63 2477.16,3801.8 4528.13,4619.18 2593.77,1033.74 5582.52,589.3 7766.59,-1088.83 1790.65,-1375.82 3113.38,-3720.89 3101.42,-6045.92l-0.53 -6834.76c-4.99,-957.14 34.1,-395.54 482.57,-1042 352.07,-507.51 276.35,-1355.82 -257.63,-1863.68 -128,-121.74 -249.52,-201.66 -382.47,-300.95 -1247.65,-931.99 -3193.03,-2592.47 -4485.37,-3242.55 -377.3,-189.8 -826.54,-285.05 -1034.56,-384.84 94.83,-407.08 260,-447.52 219.47,-1217.81 -29.83,-566.74 -117.39,-798.61 -345.54,-1179.55 -325.99,-544.37 -1089.9,-1177.46 -1924.2,-1177.46 -1028.57,0 -1770.86,260.54 -2324.81,1144.87 -325.6,519.82 -458.23,1130.29 -335.4,1830.7 47.08,268.46 140.47,389.38 189.38,599.25z"/>
   <path class="fil0" d="M7325 10619.33c464.07,0 379.29,-644.9 329.85,-1013.29 -29.73,-221.41 13.07,-443.56 -42.84,-640.58 -56.28,-198.4 -209.37,-327.97 -390.9,-322.78 -558.84,15.99 -324.56,823.95 -316.46,977.56 12.22,231.39 -125.03,999.1 420.35,999.1z"/>
  </g>
 </g>
</svg>
