<?xml version="1.0" encoding="UTF-8"?>
<!DOCTYPE svg PUBLIC "-//W3C//DTD SVG 1.1//EN" "http://www.w3.org/Graphics/SVG/1.1/DTD/svg11.dtd">
<!-- Creator: CorelDRAW 2020 (64-Bit) -->
<svg xmlns="http://www.w3.org/2000/svg" xml:space="preserve" width="240.639mm" height="240.639mm" version="1.1" style="shape-rendering:geometricPrecision; text-rendering:geometricPrecision; image-rendering:optimizeQuality; fill-rule:evenodd; clip-rule:evenodd"
viewBox="0 0 24407.5 24407.5"
 xmlns:xlink="http://www.w3.org/1999/xlink"
 xmlns:xodm="http://www.corel.com/coreldraw/odm/2003">
 <defs>
  <style type="text/css">
   <![CDATA[
    .str0 {stroke:#FEFEFE;stroke-width:20.29;stroke-miterlimit:22.9256}
    .fil0 {fill:#FEFEFE}
   ]]>
  </style>
 </defs>
 <g id="Layer_x0020_1">
  <metadata id="CorelCorpID_0Corel-Layer"/>
  <g id="_1522244860048">
   <path class="fil0 str0" d="M21661.23 23743.05l-18974.45 0c-1006.36,0 -2022.36,-1000.17 -2022.36,-2022.36l0 -19033.92c0,-1022.19 1016,-2022.36 2022.36,-2022.36l18974.45 0c1076.19,0 2081.82,1005.64 2081.82,2081.84l0 18914.96c0,1076.19 -1005.64,2081.82 -2081.82,2081.82zm-21651.09 -20996.79l0 18914.96c0,392.16 113.2,806.69 237.12,1071.44l552.85 815.19c399.05,439.27 1264.45,849.49 1886.67,849.49l18914.95 0c1556.36,0 2795.62,-1332.64 2795.62,-2914.58l0 -18558.08c0,-1581.94 -1239.26,-2914.55 -2795.62,-2914.55l-18914.95 0c-482.57,0 -1084.08,239.21 -1461.21,501.66 -722.04,502.51 -1215.43,1316.43 -1215.43,2234.46z"/>
   <path class="fil0 str0" d="M12322.7 7802.14c751.16,0 1489.6,624.86 1546.5,1308.59l-3033.52 0c15.67,-703.73 812.03,-1308.59 1487.02,-1308.59zm-4163.68 -2438.71l0 1724.94c0,359.51 189.88,416.37 416.38,416.37 382.75,0 237.93,-1093.18 237.93,-1487.03l1889.2 1858.1c-213.22,325.37 -521.16,675.8 -521.16,1234.91l-4520.55 0 0 -5650.69 13204.78 0 0 5650.69 -4342.1 0c-23.54,-1056.65 -1450.71,-2600.89 -3330.94,-1605.99l-1917.63 -1948.69c1052.74,-47.84 1501.25,159.57 1501.25,-371.07 0,-450.96 -1402.48,-297.4 -2022.36,-297.4 -354.75,0 -594.81,121.3 -594.81,475.85zm-3152.48 -2081.84l0 6067.06c0,277.68 138.68,416.38 416.36,416.38l13680.63 0c200.45,0 416.38,-105.14 416.38,-297.42 0,-1044.83 87.44,-5912.17 -59.49,-6542.92 -133.4,-31.07 -136.75,-59.47 -297.4,-59.47l-13859.09 0c-192.28,0 -297.4,215.92 -297.4,416.36z"/>
   <path class="fil0 str0" d="M8337.49 17973.41c3122.59,0 2475.89,320.03 3295.59,-927.58 137.39,-209.12 423.17,-748.8 570.66,-856.86 206.13,151.03 890.68,1484.05 1110.67,1684.92 216.92,198.09 2321.84,99.52 2755.6,99.52 -479.73,716.37 -1046.62,1191.87 -1710.77,1739.12 -266.25,219.4 -1848.31,1294.4 -2155.5,1294.4 -307.19,0 -1889.25,-1075 -2155.5,-1294.4 -664.16,-547.25 -1231.04,-1022.75 -1710.75,-1739.12zm2260.28 -654.31l-2557.69 0c-214.46,0 -324.87,-420.36 -394.59,-616.59 -107.43,-302.33 -163.78,-422.05 -226.9,-784.26 -105.49,-605.54 -97.63,-1206.55 109.42,-1728.38 694.73,-1750.94 2693.1,-2529.32 4154.61,-751.23 267.9,325.93 209.19,490.06 580.62,490.06 252.45,0 408.64,-588.36 890.47,-953.43 929.84,-704.51 1987.75,-713.19 2867.12,-8.58 1831.27,1467.29 709.73,4352.41 346.59,4352.41l-2557.67 0c-183.2,0 -313.7,-342.02 -404.84,-487.38 -166.23,-265.04 -890.66,-1594.44 -1141.67,-1594.44 -413.39,0 -475.24,380.5 -892.22,1011.17 -118.78,179.64 -221.78,355.4 -345.27,546.96 -96.07,149.09 -243.57,523.69 -427.97,523.69zm-3866.28 -2379.24c0,941.92 41.24,1557.89 475.85,2379.24 -436.49,0 -951.7,-79.74 -951.7,356.89 0,142.99 96.39,174.85 178.46,297.42l1130.13 0c584.95,1105.5 2113.72,2368.33 3214.65,3030.84 190.66,114.71 1242.28,716.44 1424.87,716.44 404.98,0 2198.69,-1225.24 2617.82,-1545.85 656.84,-502.47 1627.73,-1456.89 2021.7,-2201.44l1130.15 0c44.38,-66.31 178.43,-200.09 178.43,-237.93 0,-513.1 -456.87,-416.38 -951.7,-416.38 929.04,-1755.76 563.99,-4301.83 -1378.17,-5224.23 -870.28,-413.33 -1843.2,-422.55 -2668.27,107.13 -164.74,105.75 -357.77,242.55 -516.45,375.78 -178.73,149.99 -297.6,359.1 -433.51,458.69 -339.6,-248.8 -1447.44,-1922.7 -3577.48,-960.31 -426.49,192.71 -617.36,368.52 -928.36,677.62 -294.46,292.72 -454.42,507.82 -650.25,896.28 -150.17,297.91 -316.17,864.42 -316.17,1289.81z"/>
  </g>
 </g>
</svg>
