<?xml version="1.0" encoding="UTF-8"?>
<!DOCTYPE svg PUBLIC "-//W3C//DTD SVG 1.1//EN" "http://www.w3.org/Graphics/SVG/1.1/DTD/svg11.dtd">
<!-- Creator: CorelDRAW 2020 (64-Bit) -->
<svg xmlns="http://www.w3.org/2000/svg" xml:space="preserve" width="210mm" height="297mm" version="1.1" style="shape-rendering:geometricPrecision; text-rendering:geometricPrecision; image-rendering:optimizeQuality; fill-rule:evenodd; clip-rule:evenodd"
viewBox="0 0 21000 29700"
 xmlns:xlink="http://www.w3.org/1999/xlink"
 xmlns:xodm="http://www.corel.com/coreldraw/odm/2003">
 <defs>
  <style type="text/css">
   <![CDATA[
    .str0 {stroke:#FEFEFE;stroke-width:70.56;stroke-miterlimit:22.9256}
    .str1 {stroke:#373435;stroke-width:20;stroke-miterlimit:22.9256}
    .fil0 {fill:#FEFEFE}
    .fil1 {fill:#373435}
   ]]>
  </style>
 </defs>
 <g id="Layer_x0020_1">
  <metadata id="CorelCorpID_0Corel-Layer"/>
  <path class="fil0 str0" d="M3643.6 14980.92c0,985.31 60.76,1531.8 378.18,2442.7 154.22,442.57 294.94,695.79 510.51,1094.03 1012.65,1870.74 3335.88,3295.48 5503.56,3295.48l35.08 0c730.54,-0.17 1080.27,-6.74 1818.22,-191.19 222.76,-55.67 407.24,-114.5 615.28,-186.99 848.96,-295.84 1369.86,-662.23 2034.52,-1174.54 396.34,-305.49 861.89,-849.48 1138.84,-1242.09 679.42,-963.2 1216.15,-2280.12 1216.15,-3597.44 0,-1194.93 -141,-2055.62 -612.14,-3036.88 -716.68,-1492.63 -1729.14,-2461.54 -3192.06,-3200.21 -699.65,-353.27 -1794.37,-621 -2588.05,-621 -997.44,0 -1541.78,55.22 -2468.58,378.18 -184.74,64.38 -400.82,149.74 -568.15,234.11 -341.54,172.21 -704.64,364.15 -1015.49,589.04 -1297.84,938.93 -2225.52,2246.45 -2614.68,3803.46 -103.88,415.62 -191.19,911.07 -191.19,1413.34z"/>
  <path class="fil1 str1" d="M7732.57 12037.67c0,-268.02 30.56,-451.45 222.7,-657.21l25.35 -26.4c283.62,-282.83 694.79,-367.36 1067.25,-165.85 223.62,120.99 1624.12,1576.18 1835.54,1787.6l1552.77 1552.77c270.37,270.33 368.79,362.68 368.79,795.8 0,450.78 -486.68,810.18 -873.44,1196.93l-2070.37 2070.36c-156.1,156.12 -625.06,665.72 -799.27,753.51 -396.72,199.9 -762.06,152.52 -1068.19,-141.2 -216.42,-207.65 -261.13,-400.48 -261.13,-696.41 0,-426.72 374.88,-698.38 601.71,-925.2 201.32,-201.33 2218.32,-2192.55 2296.81,-2309.75 -78.91,-117.84 -2082.18,-2095.12 -2283.88,-2296.81 -229.27,-229.27 -614.64,-507.88 -614.64,-938.14z"/>
 </g>
</svg>
