<?xml version="1.0" encoding="UTF-8"?>
<!DOCTYPE svg PUBLIC "-//W3C//DTD SVG 1.1//EN" "http://www.w3.org/Graphics/SVG/1.1/DTD/svg11.dtd">
<!-- Creator: CorelDRAW 2020 (64-Bit) -->
<svg xmlns="http://www.w3.org/2000/svg" xml:space="preserve" width="231.987mm" height="132.389mm" version="1.1" style="shape-rendering:geometricPrecision; text-rendering:geometricPrecision; image-rendering:optimizeQuality; fill-rule:evenodd; clip-rule:evenodd"
viewBox="0 0 22950.52 13097.33"
 xmlns:xlink="http://www.w3.org/1999/xlink"
 xmlns:xodm="http://www.corel.com/coreldraw/odm/2003">
 <defs>
  <style type="text/css">
   <![CDATA[
    .fil0 {fill:#FEFEFE}
   ]]>
  </style>
 </defs>
 <g id="Layer_x0020_1">
  <metadata id="CorelCorpID_0Corel-Layer"/>
  <path class="fil0" d="M15733.66 11076.77l0 -9054.69c0,-391.36 98.6,-668.05 273.35,-892.1 622.62,-798.32 2057.55,-368.77 2057.55,667.98l0 9502.95c0,516.61 -508.94,1075.8 -1030.96,1075.8 -423.42,0 -718.34,-12.59 -1026.59,-407.82 -174.75,-224.06 -273.35,-500.75 -273.35,-892.1zm3451.55 -44.84l-403.43 0 0 -8965.02c525.51,0 853.99,-30.21 1282.37,331.32 173.1,146.09 420.98,534.14 420.98,834.13l0 6634.13c0,292.85 -238.88,669.69 -396.56,813.72 -203.16,185.54 -524.83,351.73 -903.36,351.73zm2330.91 -2958.45l-313.78 0 0 -3048.12c493.27,0 1075.81,9.13 1075.81,851.68 0,965 212.72,2196.44 -762.03,2196.44zm-20843.73 -851.68c0,-990.63 -213.42,-2196.44 762.03,-2196.44l313.78 0 0 3048.12c-485.59,0 -1075.81,-15.11 -1075.81,-851.68zm3496.36 -2599.87l0 6410c-525.51,0 -853.99,30.21 -1282.37,-331.32 -173.1,-146.09 -420.98,-534.14 -420.98,-834.13l0 -6634.13c0,-549.79 577.12,-1165.45 1299.92,-1165.45l403.43 0c0,429.53 -107.47,1255.1 358.6,1255.1 566.44,0 300.26,-1076.66 363,-1609.31 54.93,-466.03 502.88,-990.55 1026.57,-990.55 423.42,0 718.34,12.59 1026.59,407.82 174.75,224.06 273.35,500.75 273.35,892.1l0 9054.69c0,697.27 -429.12,1299.92 -1030.98,1299.92 -878.35,0 -1305.51,-423.11 -1300.23,-1344.43 4.66,-811.85 45.36,-6000.18 1.16,-6545.65 -40.78,-503.22 -718.07,-518.74 -718.07,135.33zm89.65 -3272.24c-843.54,0 -1322.41,96.14 -1783.9,502.19 -223.37,196.55 -374.42,352.53 -518.59,646.86 -268,547.12 -207.71,1189.42 -207.71,1809.43 -755.08,0 -1200.09,169.42 -1561.91,724.17 -82.28,126.15 -186.28,377.73 -186.28,575.75l0 1882.66c0,569.63 641.98,1255.11 1255.11,1255.11l493.08 0c0,611.03 -60.55,1281.74 193.11,1824.02 67.18,143.6 129.16,242.48 223.47,359.25 190.04,235.29 356.95,390.35 627.25,538.22 168,91.91 203.13,110.63 405.56,177.16 269.71,88.6 712.53,104.64 1060.81,104.64 168.33,350.8 216.84,625.85 607.53,916.53 1024.16,761.93 2213.9,475.62 2809.05,-548.07 78.12,-134.38 214.27,-488.65 214.27,-682.22l0 -3227.43 6006.57 0c663.71,0 615.21,-717.2 89.66,-717.2l-6096.23 0 0 -1882.66 7172.03 0 0 5827.29c0,172.8 126.9,526.96 197.45,654.24l299.73 417.47c880.62,907.41 2264.65,716.02 2890.49,-239.09 116.84,-178.32 156.87,-338.95 243.19,-518.84 1082.35,0 1867.62,-261.25 2302.49,-1149.05 270.73,-552.68 207.71,-1227.35 207.71,-1854.24 525.63,0 903.15,42.23 1347.72,-400.47 156.58,-155.89 400.47,-548.39 400.47,-854.64l0 -1882.66c0,-391.73 -277.64,-755.71 -546.79,-977.26 -303.45,-249.78 -664.44,-322.66 -1201.4,-322.66 0,-1025.33 81.24,-2061.19 -1043.83,-2676.67 -480.03,-262.6 -841.85,-281.8 -1466.37,-281.8 -168.33,-350.8 -216.84,-625.85 -607.53,-916.53 -795.84,-592.08 -1706.64,-581.42 -2440.69,64.75 -223.91,197.09 -582.63,755.28 -582.63,1165.55l0 3227.43 -7172.03 0 0 -3227.43c0,-964.24 -1467.08,-2388.1 -3023.32,-1230.3 -163.99,122.02 -252.01,226.25 -364.34,397.69 -116.84,178.32 -156.87,338.95 -243.19,518.84z"/>
 </g>
</svg>
